<svg width="48" height="48" viewBox="0 0 48 48" fill="none" xmlns="http://www.w3.org/2000/svg">
<circle cx="24" cy="24.0001" r="24" fill="#0A112F"/>
<g clip-path="url(#clip0_845_22876)">
<path d="M23.9987 34.6668L19.9987 30.6668H17.332C16.2712 30.6668 15.2537 30.2454 14.5036 29.4952C13.7535 28.7451 13.332 27.7276 13.332 26.6668V18.6668C13.332 17.6059 13.7535 16.5885 14.5036 15.8384C15.2537 15.0882 16.2712 14.6668 17.332 14.6668H30.6654C31.7262 14.6668 32.7436 15.0882 33.4938 15.8384C34.2439 16.5885 34.6654 17.6059 34.6654 18.6668V26.6668C34.6654 27.7276 34.2439 28.7451 33.4938 29.4952C32.7436 30.2454 31.7262 30.6668 30.6654 30.6668H27.9987L23.9987 34.6668Z" fill="white"/>
</g>
<defs>
<clipPath id="clip0_845_22876">
<rect width="32" height="32" fill="white" transform="translate(8 8.00012)"/>
</clipPath>
</defs>
</svg>
