<svg width="328" height="216" viewBox="0 0 328 216" fill="none" xmlns="http://www.w3.org/2000/svg">
<rect x="16" y="16" width="296" height="200" rx="16" fill="#D6E7FF"/>
<rect width="328" height="200" rx="16" fill="#0A112F"/>
<mask id="mask0_853_7453" style="mask-type:alpha" maskUnits="userSpaceOnUse" x="0" y="0" width="328" height="200">
<rect width="328" height="200" rx="16" fill="#2378FA"/>
</mask>
<g mask="url(#mask0_853_7453)">
<g filter="url(#filter0_i_853_7453)">
<rect x="24.0469" y="75" width="39.954" height="30.0002" rx="3" fill="url(#paint0_linear_853_7453)"/>
</g>
<path d="M24 85.3834H37.5863C38.4466 82.6104 40.8653 76.8963 43.6584 76.2246C44.6958 76.6062 47.1195 77.9801 48.5161 80.4224M24 95.0002H37.5863C37.5863 99.7628 41.6344 103.243 43.6584 104.388C47.0588 103.228 49.68 97.6461 50.5655 95.0002L64 95.0002M64 87.6732L50.5655 87.6732C49.9583 86.4774 49.1082 83.7196 50.5655 82.2542" stroke="url(#paint1_linear_853_7453)" stroke-width="0.362966"/>
<path d="M80 86.8394C80.7252 88.083 81.7405 91.1503 80 93.4716M84.7863 84.456C85.8741 86.4249 87.397 91.4612 84.7863 95.855M89.0287 81.969C90.4429 84.6287 92.4227 91.5648 89.0287 98.0311M93.5975 80.0001C95.4105 83.1434 97.9487 91.5441 93.5975 100" stroke="white" stroke-width="1.5" stroke-linecap="round" stroke-linejoin="round"/>
<mask id="mask1_853_7453" style="mask-type:alpha" maskUnits="userSpaceOnUse" x="24" y="22" width="20" height="20">
<circle cx="34" cy="32" r="10" fill="#C4C4C4"/>
</mask>
<g mask="url(#mask1_853_7453)">
<circle cx="29.2457" cy="20.2242" r="8.29659" transform="rotate(-22 29.2457 20.2242)" fill="white"/>
<circle cx="38.7574" cy="43.7759" r="8.29659" transform="rotate(-22 38.7574 43.7759)" fill="white"/>
<circle cx="22.2262" cy="36.7574" r="8.29659" transform="rotate(-22 22.2262 36.7574)" fill="white"/>
<circle cx="45.5582" cy="26.7027" r="8.29659" transform="rotate(-22 45.5582 26.7027)" fill="white"/>
</g>
<path d="M59.4 34.96C62.32 34.96 64.24 32.98 64.24 30.16C64.24 27.3 62.34 25.38 59.4 25.38H53.62V40H56.18V34.96H59.4ZM58.9 27.66C60.6 27.66 61.56 28.54 61.56 30.14C61.56 31.74 60.62 32.68 58.86 32.68H56.18V27.66H58.9ZM68.1828 40.26C69.7228 40.26 71.0628 39.56 71.4828 38.54L71.6628 40H73.8028V34C73.8028 31.26 72.1628 29.82 69.5028 29.82C66.8228 29.82 65.0628 31.22 65.0628 33.36H67.1428C67.1428 32.32 67.9428 31.72 69.3828 31.72C70.6228 31.72 71.4228 32.26 71.4228 33.6V33.82L68.4628 34.04C66.1228 34.22 64.8028 35.36 64.8028 37.18C64.8028 39.04 66.0828 40.26 68.1828 40.26ZM68.9828 38.42C67.8828 38.42 67.2828 37.98 67.2828 37.08C67.2828 36.28 67.8628 35.78 69.3828 35.64L71.4428 35.48V36C71.4428 37.52 70.4828 38.42 68.9828 38.42ZM74.6664 44.58C75.2064 44.72 75.8064 44.8 76.4864 44.8C78.1064 44.8 79.1464 44.04 79.8864 42.2L84.7264 30.12H82.2064L79.5264 37.32L76.9864 30.12H74.4064L78.3864 40.42L78.1064 41.16C77.6864 42.32 77.0864 42.54 76.1264 42.54H74.6664V44.58ZM91.9123 30.08C91.5123 29.98 91.1723 29.94 90.8323 29.94C89.5123 29.94 88.5723 30.6 88.1523 31.58L88.0123 30.14H85.7123V40H88.1523V35.2C88.1523 33.28 89.2523 32.34 91.0123 32.34H91.9123V30.08ZM92.2519 35.04C92.2519 38.12 94.4719 40.24 97.5319 40.24C100.592 40.24 102.812 38.12 102.812 35.04C102.812 31.96 100.592 29.84 97.5319 29.84C94.4719 29.84 92.2519 31.96 92.2519 35.04ZM94.6919 35.04C94.6919 33.24 95.8519 32.02 97.5319 32.02C99.2119 32.02 100.372 33.24 100.372 35.04C100.372 36.84 99.2119 38.06 97.5319 38.06C95.8519 38.06 94.6919 36.84 94.6919 35.04ZM106.806 40V25.12H104.386V40H106.806ZM113.385 40.26C115.965 40.26 117.765 38.96 118.185 36.8H115.925C115.645 37.74 114.765 38.26 113.425 38.26C111.805 38.26 110.885 37.38 110.705 35.64L118.145 35.62V34.88C118.145 31.8 116.265 29.82 113.305 29.82C110.405 29.82 108.385 31.96 108.385 35.06C108.385 38.12 110.445 40.26 113.385 40.26ZM113.325 31.82C114.785 31.82 115.725 32.72 115.725 34.08H110.765C111.005 32.6 111.885 31.82 113.325 31.82Z" fill="white"/>
<path fill-rule="evenodd" clip-rule="evenodd" d="M578.573 -67.0513C578.573 -25.2226 544.719 8.68539 502.956 8.68539H365.472C323.71 8.68539 289.855 -25.2226 289.855 -67.0513C289.855 -108.88 323.71 -142.788 365.472 -142.788H502.956C544.719 -142.788 578.573 -108.88 578.573 -67.0513ZM502.956 -32.626C521.939 -32.626 537.328 -48.0391 537.328 -67.0518C537.328 -86.0644 521.939 -101.478 502.956 -101.478H365.472C346.489 -101.478 331.101 -86.0644 331.101 -67.0518C331.101 -48.0391 346.489 -32.626 365.472 -32.626H502.956Z" fill="#B4D51E"/>
<path opacity="0.1" fill-rule="evenodd" clip-rule="evenodd" d="M239.13 198.764C239.13 179.751 223.722 164.338 204.715 164.338C185.707 164.338 170.299 179.751 170.299 198.764C170.299 217.777 185.707 233.19 204.715 233.19C223.722 233.19 239.13 217.777 239.13 198.764ZM204.715 123.028C246.531 123.028 280.429 156.936 280.429 198.764C280.429 240.593 246.531 274.501 204.715 274.501C162.899 274.501 129 240.593 129 198.764C129 156.936 162.899 123.028 204.715 123.028Z" fill="white"/>
<path opacity="0.1" d="M268.056 21.107C244.573 21.107 225.535 40.2144 225.535 63.7851V143.634C225.535 155.039 216.324 164.285 204.961 164.285C193.598 164.285 184.387 155.039 184.387 143.634V63.7851C184.387 17.405 221.847 -20.1943 268.056 -20.1943V21.107Z" fill="white"/>
<path opacity="0.1" fill-rule="evenodd" clip-rule="evenodd" d="M205.009 164.285C193.62 164.285 184.387 155.049 184.387 143.656C184.387 132.263 193.62 123.027 205.009 123.027C216.399 123.027 225.632 132.263 225.632 143.656C225.632 155.049 216.399 164.285 205.009 164.285Z" fill="white"/>
<path fill-rule="evenodd" clip-rule="evenodd" d="M309.05 -44.9183C290.032 -44.9183 274.615 -29.5138 274.615 -10.5118C274.615 8.49015 290.032 23.8946 309.05 23.8946C384.36 23.8946 445.412 84.8959 445.412 160.144C445.412 171.545 436.161 180.788 424.751 180.788C413.341 180.788 404.09 171.545 404.09 160.144C404.09 107.698 361.54 65.1824 309.05 65.1824C267.21 65.1824 233.293 31.2934 233.293 -10.5118C233.293 -52.3171 267.21 -86.2061 309.05 -86.2061C320.46 -86.2061 329.711 -76.9631 329.711 -65.5622C329.711 -54.1613 320.46 -44.9183 309.05 -44.9183Z" fill="#434A61"/>
</g>
<circle cx="27" cy="163" r="3" fill="white"/>
<circle cx="39" cy="163" r="3" fill="white"/>
<circle cx="51" cy="163" r="3" fill="white"/>
<circle cx="63" cy="163" r="3" fill="white"/>
<path d="M82.72 167.8H84.8C84.8533 168.141 85.04 168.456 85.36 168.744C85.68 169.021 86.1333 169.16 86.72 169.16C87.328 169.16 87.7973 169 88.128 168.68C88.4693 168.349 88.64 167.896 88.64 167.32C88.64 166.787 88.4693 166.349 88.128 166.008C87.7867 165.656 87.3173 165.48 86.72 165.48C86.2933 165.48 85.9307 165.56 85.632 165.72C85.344 165.869 85.1467 166.029 85.04 166.2H82.912L83.552 159.8H90.08V161.8H85.36L85.12 163.96H85.2C85.584 163.693 86.1707 163.56 86.96 163.56C88.048 163.56 88.944 163.917 89.648 164.632C90.3627 165.336 90.72 166.232 90.72 167.32C90.72 168.451 90.3467 169.373 89.6 170.088C88.864 170.803 87.904 171.16 86.72 171.16C86.0373 171.16 85.4293 171.059 84.896 170.856C84.3733 170.643 83.9627 170.365 83.664 170.024C83.3653 169.683 83.136 169.325 82.976 168.952C82.8267 168.579 82.7413 168.195 82.72 167.8ZM94.4474 165.944C94.0954 166.296 93.9194 166.755 93.9194 167.32C93.9194 167.885 94.0954 168.349 94.4474 168.712C94.81 169.064 95.274 169.24 95.8394 169.24C96.4047 169.24 96.8634 169.064 97.2154 168.712C97.578 168.349 97.7594 167.885 97.7594 167.32C97.7594 166.755 97.578 166.296 97.2154 165.944C96.8634 165.581 96.4047 165.4 95.8394 165.4C95.274 165.4 94.81 165.581 94.4474 165.944ZM92.5594 164.76L95.7594 159.8H98.1594L95.8394 163.48H95.9994C97.0767 163.48 97.9834 163.853 98.7194 164.6C99.466 165.336 99.8394 166.243 99.8394 167.32C99.8394 168.408 99.4607 169.32 98.7034 170.056C97.946 170.792 96.9914 171.16 95.8394 171.16C94.6874 171.16 93.7327 170.792 92.9754 170.056C92.218 169.32 91.8394 168.408 91.8394 167.32C91.8394 166.349 92.0794 165.496 92.5594 164.76ZM102.721 165.24V165.16C102.443 165.021 102.203 164.845 102.001 164.632C101.521 164.152 101.281 163.555 101.281 162.84C101.281 161.944 101.627 161.187 102.321 160.568C103.014 159.949 103.921 159.64 105.041 159.64C106.161 159.64 107.067 159.949 107.761 160.568C108.454 161.187 108.801 161.944 108.801 162.84C108.801 163.555 108.561 164.152 108.081 164.632C107.878 164.845 107.638 165.021 107.361 165.16V165.24C107.681 165.411 107.958 165.613 108.193 165.848C108.758 166.413 109.041 167.091 109.041 167.88C109.041 168.797 108.673 169.576 107.937 170.216C107.211 170.845 106.246 171.16 105.041 171.16C103.835 171.16 102.865 170.845 102.129 170.216C101.403 169.576 101.041 168.797 101.041 167.88C101.041 167.08 101.318 166.403 101.873 165.848C102.118 165.603 102.401 165.4 102.721 165.24ZM103.809 161.896C103.51 162.163 103.361 162.504 103.361 162.92C103.361 163.336 103.51 163.683 103.809 163.96C104.118 164.227 104.529 164.36 105.041 164.36C105.553 164.36 105.958 164.227 106.257 163.96C106.566 163.683 106.721 163.336 106.721 162.92C106.721 162.504 106.566 162.163 106.257 161.896C105.958 161.619 105.553 161.48 105.041 161.48C104.529 161.48 104.118 161.619 103.809 161.896ZM103.633 166.584C103.291 166.883 103.121 167.261 103.121 167.72C103.121 168.179 103.291 168.563 103.633 168.872C103.985 169.171 104.454 169.32 105.041 169.32C105.627 169.32 106.091 169.171 106.433 168.872C106.785 168.563 106.961 168.179 106.961 167.72C106.961 167.261 106.785 166.883 106.433 166.584C106.091 166.275 105.627 166.12 105.041 166.12C104.454 166.12 103.985 166.275 103.633 166.584ZM113.134 168.2C113.625 168.84 114.233 169.16 114.958 169.16C115.683 169.16 116.291 168.84 116.782 168.2C117.273 167.549 117.518 166.616 117.518 165.4C117.518 164.184 117.273 163.256 116.782 162.616C116.291 161.965 115.683 161.64 114.958 161.64C114.233 161.64 113.625 161.965 113.134 162.616C112.643 163.256 112.398 164.184 112.398 165.4C112.398 166.616 112.643 167.549 113.134 168.2ZM111.646 161.192C112.531 160.157 113.635 159.64 114.958 159.64C116.281 159.64 117.385 160.157 118.27 161.192C119.155 162.216 119.598 163.619 119.598 165.4C119.598 167.181 119.155 168.589 118.27 169.624C117.385 170.648 116.281 171.16 114.958 171.16C113.635 171.16 112.531 170.648 111.646 169.624C110.761 168.589 110.318 167.181 110.318 165.4C110.318 163.619 110.761 162.216 111.646 161.192Z" fill="white"/>
<path d="M297.078 154.372C296.148 154.033 295.166 153.863 294.176 153.87C290.976 153.87 288.716 155.482 288.7 157.796C288.68 159.496 290.306 160.454 291.536 161.022C292.798 161.606 293.22 161.974 293.216 162.496C293.208 163.29 292.208 163.65 291.278 163.65C290 163.65 289.302 163.472 288.228 163.026L287.83 162.84L287.376 165.504C288.154 165.828 289.556 166.106 291.004 166.13C294.406 166.13 296.63 164.528 296.656 162.066C296.684 160.708 295.804 159.682 293.952 158.834C292.826 158.284 292.128 157.916 292.128 157.358C292.128 156.864 292.726 156.336 293.976 156.336C294.808 156.316 295.635 156.472 296.402 156.794L296.702 156.928L297.156 154.354L297.078 154.372ZM305.382 154.086H302.882C302.104 154.086 301.518 154.3 301.178 155.072L296.37 165.964H299.772L300.452 164.178L304.604 164.182C304.702 164.6 305.002 165.964 305.002 165.964H308.002L305.382 154.086ZM284.098 153.986H287.34L285.312 165.87H282.074L284.098 153.982V153.986ZM275.868 160.536L276.204 162.186L279.372 154.086H282.806L277.704 165.948H274.278L271.478 155.904C271.433 155.738 271.326 155.596 271.18 155.506C270.171 154.985 269.102 154.589 267.996 154.328L268.04 154.078H273.258C273.966 154.106 274.536 154.328 274.726 155.084L275.866 160.542V160.536H275.868ZM301.382 161.748L302.674 158.424C302.658 158.46 302.94 157.738 303.104 157.292L303.326 158.318L304.076 161.746H301.38V161.748H301.382Z" fill="white"/>
<defs>
<filter id="filter0_i_853_7453" x="24.0469" y="75" width="39.9531" height="30.0002" filterUnits="userSpaceOnUse" color-interpolation-filters="sRGB">
<feFlood flood-opacity="0" result="BackgroundImageFix"/>
<feBlend mode="normal" in="SourceGraphic" in2="BackgroundImageFix" result="shape"/>
<feColorMatrix in="SourceAlpha" type="matrix" values="0 0 0 0 0 0 0 0 0 0 0 0 0 0 0 0 0 0 127 0" result="hardAlpha"/>
<feOffset dx="-0.362966" dy="-0.362966"/>
<feComposite in2="hardAlpha" operator="arithmetic" k2="-1" k3="1"/>
<feColorMatrix type="matrix" values="0 0 0 0 0 0 0 0 0 0 0 0 0 0 0 0 0 0 0.25 0"/>
<feBlend mode="normal" in2="shape" result="effect1_innerShadow_853_7453"/>
</filter>
<linearGradient id="paint0_linear_853_7453" x1="24.0469" y1="75" x2="61.1811" y2="103.244" gradientUnits="userSpaceOnUse">
<stop stop-color="#ABABAB"/>
<stop offset="0.3125" stop-color="white"/>
<stop offset="0.630208" stop-color="#BDBDBD"/>
<stop offset="1" stop-color="#5E5E5E"/>
</linearGradient>
<linearGradient id="paint1_linear_853_7453" x1="25.5042" y1="76.6838" x2="62.4619" y2="101.925" gradientUnits="userSpaceOnUse">
<stop stop-color="#7D7D7D"/>
<stop offset="0.494792" stop-color="white"/>
<stop offset="1" stop-color="#1C1C1C"/>
</linearGradient>
</defs>
</svg>
