<svg width="40" height="40" viewBox="0 0 40 40" fill="none" xmlns="http://www.w3.org/2000/svg">
<circle cx="20" cy="20" r="20" fill="#CCE1FF"/>
<path d="M19.9245 30.5925C25.8178 30.5925 30.5912 25.8192 30.5912 19.9258C30.5912 14.0325 25.8178 9.25919 19.9245 9.25919C14.0312 9.25919 9.25781 14.0325 9.25781 19.9258C9.25781 25.8192 14.0312 30.5925 19.9245 30.5925Z" stroke="#93BAFB" stroke-width="4" stroke-miterlimit="2" stroke-linejoin="round"/>
<path d="M19.9232 25.2592C22.8698 25.2592 25.2565 22.8725 25.2565 19.9259C25.2565 16.9792 22.8698 14.5925 19.9232 14.5925C16.9765 14.5925 14.5898 16.9792 14.5898 19.9259C14.5898 22.8725 16.9765 25.2592 19.9232 25.2592Z" fill="#3981F7"/>
<path d="M19.9232 21.2592C20.6565 21.2592 21.2565 20.6592 21.2565 19.9259C21.2565 19.1925 20.6565 18.5925 19.9232 18.5925C19.1898 18.5925 18.5898 19.1925 18.5898 19.9259C18.5898 20.6592 19.1898 21.2592 19.9232 21.2592Z" fill="#93BAFB"/>
<path d="M19.9258 9.2592V6.59253" stroke="#93BAFB" stroke-width="4" stroke-miterlimit="2" stroke-linecap="round" stroke-linejoin="round"/>
</svg>
