<svg width="24" height="24" viewBox="0 0 24 24" fill="none" xmlns="http://www.w3.org/2000/svg">
<path fill-rule="evenodd" clip-rule="evenodd" d="M4.79844 5.99998C4.16192 5.99998 3.55147 6.25283 3.10138 6.70292C2.65129 7.15301 2.39844 7.76346 2.39844 8.39998V18C2.39844 18.6365 2.65129 19.2469 3.10138 19.697C3.55147 20.1471 4.16192 20.4 4.79844 20.4H19.1984C19.835 20.4 20.4454 20.1471 20.8955 19.697C21.3456 19.2469 21.5984 18.6365 21.5984 18V8.39998C21.5984 7.76346 21.3456 7.15301 20.8955 6.70292C20.4454 6.25283 19.835 5.99998 19.1984 5.99998H17.2952C16.977 5.99991 16.6718 5.87343 16.4468 5.64838L15.1016 4.30318C14.6517 3.85306 14.0413 3.60011 13.4048 3.59998H10.592C9.95557 3.60011 9.34522 3.85306 8.89524 4.30318L7.55004 5.64838C7.32505 5.87343 7.01987 5.99991 6.70164 5.99998H4.79844ZM11.9984 16.8C12.4712 16.8 12.9393 16.7069 13.3761 16.5259C13.8129 16.345 14.2097 16.0799 14.544 15.7456C14.8783 15.4113 15.1435 15.0144 15.3244 14.5776C15.5053 14.1409 15.5984 13.6727 15.5984 13.2C15.5984 12.7272 15.5053 12.2591 15.3244 11.8223C15.1435 11.3855 14.8783 10.9887 14.544 10.6544C14.2097 10.3201 13.8129 10.0549 13.3761 9.87401C12.9393 9.69309 12.4712 9.59998 11.9984 9.59998C11.0437 9.59998 10.128 9.97926 9.45285 10.6544C8.77772 11.3295 8.39844 12.2452 8.39844 13.2C8.39844 14.1548 8.77772 15.0704 9.45285 15.7456C10.128 16.4207 11.0437 16.8 11.9984 16.8V16.8Z" fill="#0A112F"/>
</svg>
