<svg width="40" height="40" viewBox="0 0 40 40" fill="none" xmlns="http://www.w3.org/2000/svg">
<rect x="2.5" y="2.81052" width="35" height="34.7102" rx="6" fill="#CCE1FF"/>
<path d="M24.4485 0H15.5702C13.6056 0 12 1.41795 12 3.1735V4.76025C12 6.51581 13.5868 7.93376 15.5513 7.93376H24.4485C26.4131 7.93376 27.9998 6.51581 27.9998 4.76025V3.1735C28.0187 1.41795 26.4131 0 24.4485 0Z" fill="#93BAFB"/>
<path d="M14.9982 27.8212C14.9982 26.0469 13.5054 25.5381 11.8905 25.2518L11.0346 25.1066C9.76885 24.8981 9.67118 24.5905 9.67118 24.1789C9.67118 23.6446 10.2459 23.3253 11.2086 23.3253C12.3487 23.3253 12.6408 23.8051 12.762 24.1655L12.7736 24.1954C12.917 24.5097 13.2501 24.6971 13.6659 24.6971C13.7736 24.6971 13.8704 24.6833 13.9427 24.6711C14.3889 24.5967 14.6997 24.2992 14.6997 23.9468C14.6997 23.8594 14.6808 23.7727 14.6428 23.6885C14.4142 23.0726 13.7718 22.1033 11.9917 21.882V20.8258C11.9917 19.9461 10.3469 19.9461 10.3469 20.8258V21.8883C8.43475 22.139 7.73064 23.2287 7.73064 24.1785C7.73064 25.9067 9.16728 26.3885 10.5706 26.631L11.4965 26.7957C12.8151 27.0204 13.0475 27.3084 13.0475 27.8302C13.0475 28.4678 12.404 28.8479 11.3251 28.8479C9.92468 28.8479 9.63921 28.3196 9.44831 27.7266C9.33665 27.3984 8.9826 27.187 8.54596 27.187C8.45074 27.187 8.37437 27.1976 8.28225 27.2108L8.25451 27.2152C7.803 27.305 7.5 27.6029 7.5 27.956C7.5 28.0232 7.51421 28.0803 7.52575 28.1264L7.53996 28.1792C7.74307 28.7543 8.19146 30.0104 10.4279 30.2906V31.3961C10.4279 31.8363 10.8412 32.0667 11.2501 32.0667C11.659 32.0667 12.0728 31.8363 12.0728 31.3961V30.31C13.8486 30.1162 15 29.1658 15 27.8214" fill="#3981F7"/>
<rect x="18.5" y="27.1074" width="14" height="3.71895" rx="1.85947" fill="#93BAFB"/>
</svg>
