<svg width="25" height="24" viewBox="0 0 25 24" fill="none" xmlns="http://www.w3.org/2000/svg">
<path d="M21.5697 5.23C19.9597 5.07 18.3497 4.95 16.7297 4.86V4.85L16.5097 3.55C16.3597 2.63 16.1397 1.25 13.7997 1.25H11.1797C8.84967 1.25 8.62967 2.57 8.46967 3.54L8.25967 4.82C7.32967 4.88 6.39967 4.94 5.46967 5.03L3.42967 5.23C3.00967 5.27 2.70967 5.64 2.74967 6.05C2.78967 6.46 3.14967 6.76 3.56967 6.72L5.60967 6.52C10.8497 6 16.1297 6.2 21.4297 6.73C21.4597 6.73 21.4797 6.73 21.5097 6.73C21.8897 6.73 22.2197 6.44 22.2597 6.05C22.2897 5.64 21.9897 5.27 21.5697 5.23Z" fill="#FA4545"/>
<path d="M19.7317 8.14C19.4917 7.89 19.1617 7.75 18.8217 7.75H6.1817C5.8417 7.75 5.5017 7.89 5.2717 8.14C5.0417 8.39 4.9117 8.73 4.9317 9.08L5.5517 19.34C5.6617 20.86 5.8017 22.76 9.2917 22.76H15.7117C19.2017 22.76 19.3417 20.87 19.4517 19.34L20.0717 9.09C20.0917 8.73 19.9617 8.39 19.7317 8.14ZM14.1617 17.75H10.8317C10.4217 17.75 10.0817 17.41 10.0817 17C10.0817 16.59 10.4217 16.25 10.8317 16.25H14.1617C14.5717 16.25 14.9117 16.59 14.9117 17C14.9117 17.41 14.5717 17.75 14.1617 17.75ZM15.0017 13.75H10.0017C9.5917 13.75 9.2517 13.41 9.2517 13C9.2517 12.59 9.5917 12.25 10.0017 12.25H15.0017C15.4117 12.25 15.7517 12.59 15.7517 13C15.7517 13.41 15.4117 13.75 15.0017 13.75Z" fill="#FA4545"/>
</svg>
